# Blender v3.6.0 OBJ File: ''
# www.blender.org
mtllib pingu dvd case.mtl
o dvd_Cube.001
v 1.787549 0.304031 -0.120064
v 1.787549 5.066802 -0.120064
v 1.787549 0.304031 0.120064
v 1.787549 5.066802 0.120064
v -1.787549 0.304031 -0.120064
v -1.787549 5.066802 -0.120064
v -1.787549 0.304031 0.120064
v -1.787549 5.066802 0.120064
vt 0.523832 0.000838
vt 0.516975 0.926885
vt 0.469536 0.923884
vt 0.468519 -0.002145
vt 0.469502 0.001285
vt 0.471160 0.921705
vt 0.002667 0.928498
vt 0.001008 0.008077
vt -0.001008 0.924926
vt 0.995233 0.924926
vt 0.995233 0.999926
vt -0.001008 0.999926
vt 1.014704 0.002068
vt 0.996680 0.925167
vt 0.513155 0.927036
vt 0.531180 0.003937
vt -0.000992 0.933841
vt 1.184193 0.933841
vt 1.184193 1.002023
vt -0.000992 1.002023
vt 0.000945 0.936776
vt 1.007058 0.936776
vt 1.007058 0.996635
vt 0.000945 0.996635
vn 1.0000 0.0000 0.0000
vn 0.0000 0.0000 1.0000
vn -1.0000 0.0000 0.0000
vn 0.0000 0.0000 -1.0000
vn 0.0000 -1.0000 0.0000
vn 0.0000 1.0000 0.0000
usemtl dvd_tex
s off
f 1/1/1 2/2/1 4/3/1 3/4/1
f 3/5/2 4/6/2 8/7/2 7/8/2
f 7/9/3 8/10/3 6/11/3 5/12/3
f 5/13/4 6/14/4 2/15/4 1/16/4
f 3/17/5 7/18/5 5/19/5 1/20/5
f 8/21/6 4/22/6 2/23/6 6/24/6
